Coordinates
version=1
nRows=9
nColumns=40
inDegrees=yes

Units are S.I. units (second, meters, Newtons, ...)
If the header above contains a line with 'inDegrees', this indicates whether rotational values are in degrees (yes) or radians (no).

endheader
time	pelvis_tilt	pelvis_list	pelvis_rotation	pelvis_tx	pelvis_ty	pelvis_tz	hip_flexion_r	hip_adduction_r	hip_rotation_r	knee_angle_r	knee_angle_r_beta	ankle_angle_r	subtalar_angle_r	mtp_angle_r	hip_flexion_l	hip_adduction_l	hip_rotation_l	knee_angle_l	knee_angle_l_beta	ankle_angle_l	subtalar_angle_l	mtp_angle_l	lumbar_extension	lumbar_bending	lumbar_rotation	arm_flex_r	arm_add_r	arm_rot_r	elbow_flex_r	pro_sup_r	wrist_flex_r	wrist_dev_r	arm_flex_l	arm_add_l	arm_rot_l	elbow_flex_l	pro_sup_l	wrist_flex_l	wrist_dev_l
      5.88999999999999968026	     29.80951235033096224925	      5.91886571030732255849	   -178.61186063972252213716	      0.28852522309149469804	      0.84748333331537306634	     -0.64785637456099209874	     44.07880026720093979975	     -2.06840795170217051080	    -17.16900519253001178299	     13.15203058146961367925	      0.22954623696962908608	      1.98176896331306062748	      0.00000000000000000000	      0.00000000000000000000	     50.02430088263227503376	    -12.57449786586298046132	     -1.91990146523228766284	     19.64873220628854966208	      0.34293507084238489258	     -0.43679930410076395209	      0.00000000000000000000	      0.00000000000000000000	     11.33717787088182937794	      6.06350540308605001627	     -2.22631013023111012927	     23.10449907088187870841	    -11.70073887303179205333	     59.11519137467331574953	      2.39598630446505866942	     85.79177519937145746098	      0.00000000000000000000	      0.00000000000000000000	     13.00663415632344133144	     -8.20727383623417949821	     73.95115814296281087081	      0.72705336579039048228	      3.88786075601985547934	      0.00000000000000000000	      0.00000000000000000000
      5.89499999999999957367	     30.06728107664576654656	      6.01638104511685956055	   -178.64128499511272707423	      0.28766784730893113498	      0.84726101176213419741	     -0.64793714274986147217	     44.17600189672226917992	     -1.94773856560090563583	    -17.30924841303871630771	     12.93880146773436479180	      0.22582468687383952521	      1.92008432542111906471	      0.00000000000000000000	      0.00000000000000000000	     50.23158948247139221621	    -12.68435275336315903871	     -1.96655356987588603168	     19.64752875950545529804	      0.34291406673364732693	     -0.37954808403407919171	      0.00000000000000000000	      0.00000000000000000000	     12.05735261354662846145	      6.14042930817436349855	     -2.48254594083152824169	     22.93133727976549707250	    -11.69378368725627126423	     58.06704548598269610693	      2.48638606986690247069	     86.26817087032367226129	      0.00000000000000000000	      0.00000000000000000000	     12.88377445023348677466	     -7.86049983491024217841	     70.52852603560010891215	      0.74632405402713275500	      3.72853247793796427345	      0.00000000000000000000	      0.00000000000000000000
      5.90000000000000035527	     30.02735327775125639960	      6.08445980182077317266	   -178.57401263672232971658	      0.28640547842123259548	      0.84745855017205062865	     -0.64772832289433113218	     43.94057622203914093006	     -1.90955241814561693658	    -17.52647940227380018996	     12.75818156788812984814	      0.22267227492690033763	      1.95571679583941526737	      0.00000000000000000000	      0.00000000000000000000	     50.00668382525673649752	    -12.69000146508795445754	     -1.95383297961237789586	     19.44293733782965105661	      0.33934327280406845206	     -0.30771804840547695159	      0.00000000000000000000	      0.00000000000000000000	     12.45891488162495974734	      6.18873302897596122563	     -2.73622249080318580283	     22.73146416181058526718	    -11.66778731826331139132	     56.86583806473082347566	      2.53963481781122357717	     86.51419215597871925638	      0.00000000000000000000	      0.00000000000000000000	     12.77054617179054751830	     -7.58445968627863198464	     67.97157660164354808785	      0.75761473263726553107	      3.58199027896139288174	      0.00000000000000000000	      0.00000000000000000000
      5.90500000000000024869	     30.00560234156376537840	      6.16081622228339487179	   -178.47333954080889384386	      0.28526956867141917140	      0.84753898265477911611	     -0.64742344487058511859	     43.76012757814653753030	     -1.90573983947873992761	    -17.71863485349277311798	     12.65260129180695081175	      0.22082955148411914648	      2.01505245458758430743	      0.00000000000000000000	      0.00000000000000000000	     49.87670974890964004089	    -12.66850773259828777384	     -1.84909312715511919833	     19.35847739515687848666	      0.33786916871838290621	     -0.17257745171913693727	      0.00000000000000000000	      0.00000000000000000000	     12.89353610604351629831	      6.24037832587978336107	     -2.84939195075042706051	     22.44398434149407606242	    -11.74445262162989500609	     55.39377454349286011848	      2.60957977781733241329	     86.57433166778019995036	      0.00000000000000000000	      0.00000000000000000000	     12.48157132900695742705	     -7.52441329784174239848	     68.03712177756084145130	      0.75691813649286976418	      3.54204637320860360461	      0.00000000000000000000	      0.00000000000000000000
      5.91000000000000014211	     30.13346801811243125258	      5.65421753102934676605	   -178.64231837506912370372	      0.28434954798575085011	      0.84746867215406518348	     -0.64718820862510240133	     43.88874191886281295183	     -2.23298672690052191214	    -17.07332851071062052029	     12.70994927690519560315	      0.22183046264346814591	      2.08921926079089015360	      0.00000000000000000000	      0.00000000000000000000	     49.63967978194587971075	    -12.38376054018199745599	     -2.48827279147942670434	     19.12218889010856770483	      0.33374515632067464077	     -0.15203352226212255016	      0.00000000000000000000	      0.00000000000000000000	     13.35980583452590053639	      5.73131731453844661672	     -2.97862086079286525475	     22.38145790695328685160	    -11.56413196029851597757	     55.01655101084526933164	      2.57050223786233233980	     86.60859438823062816937	      0.00000000000000000000	      0.00000000000000000000	     12.59882924646985813411	     -7.11301047426870347579	     61.98713778171095611924	      0.78102469292140908053	      4.05288046054140860264	      0.00000000000000000000	      0.00000000000000000000
      5.91500000000000003553	     30.05498920797208128874	      5.93725154078931094404	   -178.42323184053378781755	      0.28322493860769976104	      0.84750588544699201332	     -0.64674316030891820795	     43.66823509234460942707	     -2.15236502468793711174	    -17.55623626535309966812	     12.68756618598412622134	      0.22143980401012222647	      2.24691488266783334637	      0.00000000000000000000	      0.00000000000000000000	     49.59264153678955722171	    -12.43754408266527278215	     -2.11848574865738958906	     19.16029874622907769322	      0.33441029878743888659	      0.02039851356210706582	      0.00000000000000000000	      0.00000000000000000000	     13.72279654519058311735	      5.98607285967068936117	     -3.32521610858236549291	     22.16105386574737678984	    -11.68491324246152274213	     54.04393814504398818599	      2.73834528418553446727	     86.70582669775374995424	      0.00000000000000000000	      0.00000000000000000000	     12.40706349044721967800	     -6.91964576057138369691	     61.08392444024498502131	      0.79495760718104402365	      3.71522603140211415962	      0.00000000000000000000	      0.00000000000000000000
      5.91999999999999992895	     30.08265288474508025729	      6.06191756769739420463	   -178.38790491218384204331	      0.28227515467235586577	      0.84741067951453152851	     -0.64658834479334226231	     43.59027154548746096907	     -2.06268511128714493452	    -17.65141564054178147103	     12.62857620620227727670	      0.22041023463724410125	      2.25133900450281654315	      0.00000000000000000000	      0.00000000000000000000	     49.62941685990028872766	    -12.52328949679541203466	     -2.07230280274765066295	     19.25656883764154514438	      0.33609052885378232212	      0.18670524639537103284	      0.00000000000000000000	      0.00000000000000000000	     14.13364871272766265520	      6.10026003447215714459	     -3.59498834958152624353	     22.02202563834553217248	    -11.69562526796838852761	     53.29268455041778906889	      2.79739537421098116710	     86.80275219358908600498	      0.00000000000000000000	      0.00000000000000000000	     12.39607822128290592900	     -6.66247612304816971829	     58.00429896953339437005	      0.82224296080916237095	      3.73306056021006282819	      0.00000000000000000000	      0.00000000000000000000
      5.92499999999999982236	     30.21380794917262591071	      5.84466560683282398969	   -178.48368740371572016556	      0.28160869643122010686	      0.84711740293849979722	     -0.64646404008996538604	     43.80496176393364748947	     -2.23616481017989432445	    -17.47735974013557935791	     12.88045165087522114788	      0.22480629045171177105	      2.45962825238788296289	      0.00000000000000000000	      0.00000000000000000000	     49.64396305112283869221	    -12.41735334934529255690	     -2.37444850088736725269	     19.28227532627168372414	      0.33653919171950474887	      0.28274727693762619074	      0.00000000000000000000	      0.00000000000000000000	     14.60726389087792220778	      5.88280161814534263698	     -3.64485901240315701699	     21.88643038583446553957	    -11.71645152549920076979	     52.72580441470885403987	      2.89714365733908163492	     86.82624851519949515932	      0.00000000000000000000	      0.00000000000000000000	     12.34979116135645682562	     -6.51134694261867341680	     55.44278553732809911025	      0.84528763315290800229	      3.97382029171353767794	      0.00000000000000000000	      0.00000000000000000000
      5.92999999999999971578	     29.98452833050408372628	      6.19727702841658878441	   -178.29199662343796717323	      0.28035201097656015090	      0.84733113742032883930	     -0.64617928877579144942	     43.31493842673641125884	     -2.00478337176643695017	    -17.82408006654119603240	     12.60809656685189317216	      0.22005279750095887992	      2.49074344123803070872	      0.00000000000000000000	      0.00000000000000000000	     49.52085747641564239530	    -12.59210893326622482391	     -2.08518507842669187369	     19.45989186532055015277	      0.33963918513190455295	      0.48580174677647564030	      0.00000000000000000000	      0.00000000000000000000	     14.74525342726851562247	      6.20119490123209704535	     -4.13145234012393913758	     21.78706729348416004655	    -11.71862986765257907962	     52.36701585220983901081	      2.95832593730326776083	     86.89975822552003137389	      0.00000000000000000000	      0.00000000000000000000	     12.41091058291548243631	     -6.21972295803771135780	     52.07567981366447185110	      0.88013084552363951563	      3.88401455369432246911	      0.00000000000000000000	      0.00000000000000000000
